<svg xmlns="http://www.w3.org/2000/svg" viewBox="0 0 596 48">
    <path fill="#18403c" d="M595.7 14.9c-1.2-.3-10.2-3.1-15.8-3.9-5.6-.8-19.4-4.3-22.6-5.7-3.2-1.4-20.2-4.3-24.6-5-4.4-.7-16.1.2-17.7 3.5-1.7 3.3.5 10 9.6 14s15.7 11.2 14.8 12.5c-.8 1.3 1.6 4.2-11.4-.1-13-4.4-23.1-5.5-31.1-10.2-6.1-3.6-13.3-3.6-14.7-3.3-.7.1.1.5 1.1 1.7.8.8.5 1.5-1.2 1.6-3.4.3-12 1.1-16-1.7-3.4-2.3-14-3.3-12.4-4 1.6-.8 7 .4 5.8-1.4-.8-1.2-11.9-2.1-21.4-2.8-9.5-.8-15.5 1-30.5.3s-35.3-.2-40.6-.7c-5.3-.5-10.1-1-13.6-.7-9.1.8-16.4 3.6-19.9 5.6-3.4 2-16.4 6.7-26.9 5.9-10.5-.8-31.1-.1-34.6-.8s-21.4.4-24.7 1c-3.3.6-5.7 1.9-9.2 1.7-3.4-.2-27.5-3.4-31.4-3.8-3.9-.4-12.5-2-16.3-3.2-3.8-1.2-16.1-2-25-2.1s-28.3-.4-36.8-1.1c-8.5-.8-30-3.3-39.9-1.6-9.9 1.7-38.3 8.6-43.4 11.1S21.6 34.2 18.4 35.5c-3.2 1.3-3.8.2-5.6 1-1.8.9-10.9 6-11.8 7.3-.1.2-2.5 2.4.9 1.6 3.4-.8 13.1-2.4 17-2.2 3.9.2 18.8-1.6 21.4-.9 2.7.7 8.3.9 11.4 2 3.1 1.1 12-.3 16.8.2 4.8.5 7.6 1.5 9.5 2.7 1.9 1.1 4.6.7 5.9.7 1.2 0 27.7-1.4 36.8-2 9.1-.6 32.8-11.6 40.7-12.7 7.9-1.1 18.2-.4 22.4-1.1 4.1-.8 11.9 1.8 16 1.4 4.1-.4 17.2-.6 21.5-1.2 4.3-.6 20.3.6 23 .7 2.7 0 3.5.3 2.7-.4s-3.8-3.3.5-3.7c4.4-.4 9.9.9 12.6-.5 2.6-1.3 1.3-2.8 2.3-2.9 1-.1 14.5 1.5 20.3 2.2 5.9.7 16.3 2.7 21.3 2.5 5.1-.2 18.1 1 24.4-.5 6.3-1.6 19-2.4 24.1-4.6s14.1-4.6 22-5.3c7.9-.7 20.6-1.4 32-1 11.4.4 24.8.9 32.5 2.4 7.8 1.4 17.7 5 30.6 6.6 13 1.6 29.5 5.7 35.8 7.6 6.3 1.9 15.1 3.5 17.3 3.9 2.2.4 10.2 1.8 9.3 1.8-.9.1-7.7-.8-9.5-.1-1.8.6-1 .5-3.5.6-2.5.1-28.8-5.5-30.7-5.8-1.9-.3-6.9-.6-5.8-.1s12.6 2.4 20.4 4.3c7.8 1.9 24 6.6 28.1 6.6 4.2 0 3.6-1.5 6.7-1.7 3.1-.2 10.7 2.6 15-.7 4.3-3.3 2.5-6.9.9-10-1.6-3.1-6.3-10.6-5.7-12.9.6-2.3 2.9-3.6 2.2-3.6-.8 0-1.7 1.3-3.2.7-1.5-.7-.2-1.6-2.8-.6-2.5.9-3.1 2.1-3.7 1.6-.6-.4-10.8-3.9-8.4-8 2.4-4.2 9.9-4.2 13.3-2.8 3.5 1.4 9.3.9 7.3 2.3-1.9 1.4-6.3 2.8-4.9 2.9 1.5 0 9.3 1.5 14.9 1.2 5.7-.3 9.5-1.4 12.8-2 3.3-.6 14.7.9 16.9 1.8 2.3.8 4.6.4 3.4.1zM121.9 43.7c-3.2.9-13.8.8-18.5.6-4.7-.1-16.7 2.5-21.6 1.8-7.7-2-12.7-3-12.7-3 .6-1.5 5.2-3.1 9.3-4.3 4.1-1.2 19.8.7 28 2.1 8.3 1.3 25.3-2.4 28.1-2.6 2.9-.3-9.4 4.5-12.6 5.4zm234.9-30c-6.2.1-8.7-.5-10.9-.4s-9.1 1.3-11.4 2.5c-.7.4 7.3-4.1 13.8-4.8 6.5-.7 12.3-.5 13.5-.3s1.2 2.9-5 3z"/>
    <path fill="#152E2B" d="M515.5 4c1.2-3 6.1-3 12.3-3.3s21.8 2.9 27.6 5 13.6 4.6 20.4 5.1c6.8.6 19.6 3.9 19.6 3.9-1.2-.3-10.2-3.1-15.8-3.9-5.6-.8-19.4-4.3-22.6-5.7-3.2-1.4-20.2-4.3-24.6-5-4.4-.7-16.1.2-17.7 3.5-1.7 3.3.5 10 9.6 14s15.7 11.2 14.8 12.5c-.8 1.3 1.6 4.2-11.4-.1-13-4.4-23.1-5.5-31.1-10.2-6.1-3.6-13.3-3.6-14.7-3.3-.7.1.1.5 1.1 1.7.8.8.5 1.5-1.2 1.6-3.4.3-12 1.1-16-1.7-3.4-2.3-14-3.3-12.4-4 1.6-.8 7 .4 5.8-1.4-.8-1.2-11.9-2.1-21.4-2.8-9.5-.8-15.5 1-30.5.3s-35.3-.2-40.6-.7c-5.3-.5-10.1-1-13.6-.7-9.1.8-16.4 3.6-19.9 5.6-3.4 2-16.4 6.7-26.9 5.9-10.5-.8-31.1-.1-34.6-.8s-21.4.4-24.7 1c-3.3.6-5.7 1.9-9.2 1.7-3.4-.2-27.5-3.4-31.4-3.8-3.9-.4-12.5-2-16.3-3.2-3.8-1.2-16.1-2-25-2.1s-28.3-.4-36.8-1.1c-8.5-.8-30-3.3-39.9-1.6C78.5 12.1 50.1 19 45 21.5S21.4 34.2 18.2 35.4c-3.2 1.3-3.8.2-5.6 1-1.8.9-10.7 6-11.7 7.4 0 0 7.6-5.5 12.1-6.3s4 .4 10.9-3.2S41 23.5 50.6 20.8 79 12 92.2 11.3c13.2-.7 31.8 4.8 40.4 5s38.3-1.2 48.6-.4c10.2.8 20.6 3 23.5 3.2 2.8.2 30 3.2 31.6 3.6 1.7.4 6.7 1.2 15.4-.4s16.8-2.3 20.4-1.9c3.6.4 31.8.4 33.7.6s18.7-1.6 28.6-6c9.9-4.5 15.9-5.5 21.2-5.6 5.3-.1 19.4 1.8 22.2 1.7 2.9-.1 25.4-.6 28.4-.4s8.8.7 18.1.1 16.1 0 18.9.2c15.9 1.3 15.6 2.2 15.6 2.2s-6.9-.8-6.8.8c.1 1.1 7.7 2.2 11.2 3.2 3.4 1 3.6 2.9 8.1 3.4s13.5 1 13.7-1.3c.2-2.3-1.9-2.3-1.9-2.3s8.3-.3 14 3.4 11 6.1 18.5 7.4c7.5 1.3 23.8 9.6 25.2 2.6.9-4.8-14.9-12.7-15.6-13-.8-.2-12.4-6.3-9.7-13.4z"/>
    <path fill="#152E2B" d="M2 45.4c3.4-.8 13.1-2.4 17-2.2 3.9.2 18.8-1.6 21.4-.9 2.7.7 8.3.9 11.4 2 3.1 1.1 12-.3 16.8.2 4.8.5 7.6 1.5 9.5 2.7 1.9 1.1 4.6.7 5.9.7 1.2 0 27.7-1.4 36.8-2 9.1-.6 32.8-11.6 40.7-12.7 7.9-1.1 18.2-.4 22.4-1.1 4.1-.8 11.9 1.8 16 1.4 4.1-.4 17.2-.6 21.5-1.2 4.3-.6 20.3.6 23 .7 2.7 0 3.5.3 2.7-.4-.9-.6-3.8-3.3.5-3.7 4.4-.4 9.9.9 12.6-.5 2.6-1.3 1.3-2.8 2.3-2.9 1-.1 14.5 1.5 20.3 2.2 5.9.7 16.3 2.7 21.3 2.5 5.1-.2 18.1 1 24.4-.5 6.3-1.6 19-2.4 24.1-4.6 5.1-2.1 14.1-4.6 22-5.3 7.9-.7 20.6-1.4 32-1 11.4.4 24.8.9 32.5 2.4 7.8 1.4 17.7 5 30.6 6.6 13 1.6 29.5 5.7 35.8 7.6 6.3 1.9 15.1 3.5 17.3 3.9 2.2.4 10.2 1.8 9.3 1.8-.9.1-7.7-.8-9.5-.1-1.8.6-1 .5-3.5.6-2.5.1-28.8-5.5-30.7-5.8-1.9-.3-6.9-.6-5.8-.1s12.6 2.4 20.4 4.3c7.8 1.9 24 6.6 28.1 6.6 4.2 0 3.6-1.5 6.7-1.7 3.1-.2 10.7 2.6 15-.7 4.3-3.3 2.5-6.9.9-10-1.6-3.1-6.3-10.6-5.7-12.9.6-2.3 2.9-3.6 2.2-3.6-.3 0-.6.2-.9.4-.6.3-1.3.7-2.3.3-1.5-.7-.2-1.6-2.8-.6-2.5.9-3.1 2.1-3.7 1.6-.6-.4-10.8-3.9-8.4-8 2.4-4.2 9.9-4.2 13.3-2.8 3.5 1.4 9.3.9 7.3 2.3-1 .7-2.6 1.4-3.7 2-1.2.5-1.9.9-1.2.9 1.5 0 9.3 1.5 14.9 1.2 5.7-.3 9.5-1.4 12.8-2 3.3-.6 14.7.9 16.9 1.8 0 0-9.7-3.6-17.9-2.5s-13 1.9-15.3 1.8c-2.3-.2-10.2-.6-10.2-.6s8.3-2.7 4.7-3.9c-2-.6-5.6-.7-8-1.5-2.4-.8-14.6-1.7-14.7 4.3-.1 4.8 9.1 7.8 9.9 7.7s4-2.5 4.7-2.1 1.3 1 1.9 1 2.4-.8 2.4-.8-3.8 1.7-3 4.7 6.7 12.5 7.1 13.3c.4.8 1.7 7.2-2 8.3-3.7 1.1-12.4.1-13.8-.2s-4 1.4-6.9 1.6c-2.8.2-27.3-5.9-27.3-5.9s-12.5-2.7-13.5-2.9c-1-.2-5.7-1-5.7-1s1.5-.5 5.5.3 15.6 3.3 16.9 3.6c1.4.2 9.7 2.8 14.3 2.1 4.6-.6 6.9-.9 8.3-.8s5.1-.1 5.1-.1-3-1-5.4-1.4c-2.4-.4-10.6-1.6-11.3-1.8-.6-.2-10.3-2.3-14.6-3.6-4.3-1.2-23.4-5.9-28.8-6.9-5.4-1-36.3-6.9-37.5-7.2-1.2-.3-18.6-1.8-23.1-1.6s-12.8-.3-12.9-.3-28.9 1-31.4 1.1-15 2.8-19.5 4.9c-4.5 2.1-21.8 5.1-22.4 5.2-.6.1-13 .7-15 .5-2-.2-14.2-.2-18.5-1.2-4.3-1-31.1-5.2-33-4.8s.5 1.7-.3 2.6c-.7.9-1.7 1.7-2.9 1.9s-8.3-.1-9.2-.1c-.9 0-6-.5-5.5.9s2.7 2.9 2.7 2.9-6.2.1-8-.1c-1.8-.2-15.8-1.3-20.5-1.2s-15.7 2-22.6 1.2c-6.9-.9-11.2-.7-11.9-.5-.6.2-17.9-.3-22.6 1.2-4.7 1.5-22.2 7-26.1 7.6-3.9.6-11 5-33 5.6s-17.2 1.1-24-.5C70.8 44 66 43.2 62.2 43.7c-3.8.5-8.7.5-10.4 0S42 42 41 41.8s-12.5-.5-18.2.3-6.2.1-9.9.8C9.2 43.6 2 45.4 2 45.4z"/>
    <path fill="#152E2B" d="M69.2 43.1s1.6-1.5 4.3-2.1c2.7-.6 4-1.9 6.8-2 2.8-.1 15.3.4 20.7 1.5s8.7 2.4 15.5 1.5c6.8-.9 18.7-3.7 18.7-3.7s-2.6-.1-7.2.9-13.6 2.1-20.4 1.1c-6.8-1-18.9-2.7-24.3-2.3s-8.4 1.2-10.5 2.6c-2.4 1.3-3 1-3.6 2.5z"/>
</svg>
