<svg xmlns="http://www.w3.org/2000/svg" viewBox="0 0 492 58">
    <path fill="#18403c" d="M484 36.6c-16.8 2.8-38.3 4.3-52.8-4.7-6.9-3.5-2.6-11.6-13.6-13.8-12.5-2.3-11.6-2.4-20.3-4.9-13.5-3.9-41 0-46.6 2.5-4.2 1.6-11.2 6.7-12.9 7.2-3.6 1.1-7.7-.5-10.2 1.8-7.7 7.2-27 9.1-38.5 6.4-5.5-1.3-9.8-6.2-14.3-11.1-1.8-2.2-1.4-7-1.5-8.7-.3-3.3-4.5-4.4-6.5-5.3-20.1-8.7-43.9-5.6-66.4-2.5-14.3 1.5-42.8 5-54.1 12.1-7.9 4.9-15.8 6.3-29.2 7.8C98.4 25.5 85 35.9 64.9 35.6c-5.2-.1-15.7 1.1-22.2-.2-1.2-.2-9.3-1-15.2-1-11.6-.8-19-2.7-27.5-7.7 20.7 23.6 64.1 24.2 94.4 23 7.9-.9 18.9-.7 23.3-4.4-1.5.3-17.6.9-20.4.7-.9 0 5-2.4 8.8-2.8 13.5-1.8 25.3-4.6 39.3-6.5 29.5-2.8 68.6-11.6 96.9.3 4.9 2.1 5.9 5.4 5.8 6.5-.1 1.1.6 2.2 1.7 2.7 6.4 3.4-2.4 2.1-4.8.2-1.3-1.1-4.1-1.7-5.2-3.4-2.8-5.8-19.8-6.5-24.4-6.1-11.2 1 7.4 1.7 10.2 2.8 7.1 2.3 5.5 0 11 3.8 1.3 1.7 1.3 3.3 3.9 4 2.6.7 6.1 3.5 9.9 4.4 3.8 1 9.9 1.8 12.1 3 3.1 1.6 8 1.4 9.9 1.3 6.3-.4 10.3 1.3 16 1.8 30.7 2.8 54.7-20.1 83.2-27.3 14.3-3.6 24.7-6.4 40-1.2 5.4 2.5 9.6 4.4 9.3 6.4-.3 2-1.9 3.3-.8 4.8 1.6 2.2 8.5 4 12.4 3 18.4-4.7 45.6 5 59.6-10-.1-.3-4.8 2.4-8.1 2.9z"/>
    <path fill="#18403c" d="M147.1 43.1c-4.2.2-3.5-.7-8.3.1-3.7.6-14.8 1.5-13.7 2.4 3.1 2.4 10.2-.1 15.2-.1 4.3 0 8.1-1.3 9.2-1.7 0 0 .4-.8-2.4-.7zm54.1-6c-.9.1-2.8.7-3.7.9 1 .6 4.6 1 5.4-.3.5-.7-.7-.7-1.7-.6z"/>
    <path fill="#152E2B" d="M492 33.4c-14 15-41.2 5-59.6 9.7-3.8 1-10.4-.9-12.1-3.1-1.1-1.5.7-2.5 1-4.6.3-2-4.4-4-9.8-6.5-15.3-5.1-25.7-2.4-40 1.2-28.5 7.3-52.5 30.1-83.2 27.4-5.7-.5-9.7-2.2-16-1.8-1.9.1-6.8.3-9.9-1.3-2.2-1.1-8.3-2-12.1-3-3.8-1-7.3-3.7-9.9-4.4-2.6-.7-2.6-2.3-3.9-4-5.4-3.8-3.6-1.7-10.7-4-2.8-1.1-19.5-1.1-10.1-1.7 4.6-.3 21.2.1 24 5.9 1.2 1.7 4 2.2 5.3 3.3 2.8 2.2 11.5 2.9 4.7-.7-1.1-.5-1.9-1.6-1.7-2.7.1-1.1-.9-4.4-5.8-6.5-28.4-11.9-67.5-3.1-96.9-.3-14 1.9-25.8 4.7-39.3 6.5-2.2.2-5.4 1.5-7.3 2.2-1.2.5-2 .9-1.6.9 2.8.2 18.9.4 20.1-.6-4.1 3.2-14.9 3.6-22.8 4-31.8 1.4-73.5.6-94.4-22.7 0 0 11.8 24.3 80.7 25.6 31.8-3.3 34.2-4.2 37.3-7.4 0 0-2.6.2-5.6.4-3 .1-12.7 0-12.7 0s7.3-1.9 12.6-2.5 28.2-4.3 34.8-5 38.7-5 44.6-5.3c6-.4 20.8-1.9 33.7.4 12.9 2.3 17.2 4.1 18.9 5.5 1.7 1.4 3.2 2.7 3.1 3.9 0 1.2.3 2.6.9 3.3.6.7 3.1 2.1 3.1 2.1s-2.9-.3-4.3-1-2.7-1.4-3.6-1.7c-.9-.3-3.1-1.4-3.3-2.1-.3-.7-2.4-3.8-5.1-4.5s-9.5-2.4-12.4-2.6c-2.9-.2-8.1.6-9.5.9-1.4.3-3.3 1-1.9 1.4 2.8.8 12.6 1.3 13.6 1.5 1 .2 4.7 1.3 6.1 1.4 1.4.1 2.7.7 3.6 1.5.9.8 1.9 2.7 3.3 3.9 1.3 1.3 3.8 2 5.3 2.6s3.3 3.5 9.8 4.7 10.2 2.8 13.1 3.2 13 .1 17 .6c4 .4 12.6.7 12.9.6s16.9.9 35.8-9.1 43-18.5 43.3-18.7c.3-.1 13.8-3.6 18-3.6 4.2 0 12 1.1 15 1.6s9.5 4 11.2 5.2c1.7 1.3 0 3.7-.2 4.9-.2 1.2-.6 4.7 5 5.4 5.6.7 10-.6 11.2-.9 1.2-.2 13.6-.9 19.9-.6 6.3.3 16.8 1.4 24.1-.5 7-1.8 12.7-8.3 12.7-8.3z"/>
    <path fill="#152E2B" d="M492 33.4s-4.6 2.2-7.3 2.9c-16.8 3.4-38.3 4.3-52.8-4.7-6.9-3.5-2.6-11.6-13.6-13.8-12.5-2.3-11.6-2.4-20.3-4.9-13.5-3.9-41 0-46.6 2.5-4.2 1.6-11.2 6.7-12.9 7.2-3.6 1.1-7.7-.5-10.2 1.8-7.7 7.2-27 9.1-38.5 6.4-5.5-1.3-9.8-6.2-14.3-11.1-1.8-2.2-1.4-7-1.5-8.7-.2-3.4-4.3-4.4-6.4-5.3C247.5-3 223.7.1 201.2 3.2c-14.3 1.5-42.8 5-54.1 12.1-7.9 4.9-15.8 6.3-29.2 7.8-18.7 2.1-32.1 12.5-52.2 12.1-5.2-.1-15.7 1.1-22.2-.2-1.2-.2-9.3-1-15.2-1-11.7-.9-19.7-2.4-28.3-7.4 0 0 7.2 7.7 29.1 9.4s26.2.9 32 1.1 14.6 1.2 25.7-2.1C98 31.7 112 25 117.4 24.5c5.4-.5 21.8-2.5 28.8-5.7s23.3-10.3 37-11.8 33.5-5.3 37.3-5.6 38 .2 46.1 4.9c8.1 4.6 5.7 6.1 6.4 9.9.7 3.8 2.8 12.4 13.6 15.5s28.2.2 30.6-.8c2.4-1 11.4-5.9 12.8-6.8 1.5-.9 7.9.1 9.2-.7 1.3-.8 11.8-7.7 20.8-9s26.6-2.7 36.2-.6 21.3 4.7 24.1 5.8c2.7 1.1 4.2 7 6.4 11.1s10.5 8.4 27.9 8.9 29.1-2.6 29.9-2.8c1.9-.4 7.7-3.5 7.5-3.4zm-366.8 12s.9.8 5 .9c4.1.1 6.7-1 8.5-.9 1.8.1 6-.4 7.2-.6s3.7-1 3.7-1-3 1.7-6.2 1.8c-3.2.2-4.5-.1-5.6.2-1.1.3-6 1.3-8.8 1.1-2.7-.3-3.3-.4-3.8-1.5z"/>
    <path fill="#152E2B" d="M197.5 38c.1 0 1.9.7 3.5.4 1.6-.2 2-1 2-1s-.1 1.2-2.2 1.2c-2.1.1-3.3-.6-3.3-.6z"/>
</svg>
