<svg xmlns="http://www.w3.org/2000/svg" viewBox="0 0 460 75">
    <path fill="#18403c" d="M125.4 70.4s4.2 5.6 14.4 4.4c10.2-1.2 9.8-.2 16.4-.7s19.4-6 24.8-6.9 28-4.1 34.3-3.9c6.3.3 21.3.7 28 .4 6.7-.2 43.7-.5 53.2-1s24.7-3 30.9-5.9c6.2-2.9 11.7-8 11.5-9.7s3.5-3.4 10.1-5.1c6.5-1.7 27.3 3 32.4 1.8s24.9-2.6 31.2-3.3c6.4-.8 11.3-1.3 17.7-4s17.8-1.7 21.1-2.6 4.9-1.3 7.3-2.4c2.2-1 1.9-1.8-3.7-.8-5.5 1-4 .4-9.2.6s-6.9 0-13.8-.3-12.9.1-20.6-2.2c-7.7-2.2-18.9-5.6-27.8-7.1s-13.5-2.3-19.2-2.3c-5.6 0-15.9 2.4-13.8 2.9s15-1.1 17.2-.1c2.2 1 1.8 2.8-9.8 2.2-11.6-.6-12.7.6-16.1 1s-10.2 1.8-14.3 1.4c-4.1-.4-19.7 4-23.7 6.6s-12.9 6-18.1 6.9c-5.2.9-19.4.9-22.5.2-3.1-.7-9.9-2-14-2s-14 1.1-22.4 2.2-16.5 2.7-24.6 2.4c-8.1-.3-17.4-.6-22-1.8-4.5-1.1-16.7-3.7-22-5.2-5.3-1.5-14.5-5.3-21-6-6.5-.7-35.4-9.6-39.8-9.8s-11.3.7-15.5-.6c-4.2-1.2-21.9-3.9-30.2-5.4S30.5 9 24.6 9C18.7 9 3.8 4.6 1.3.6-.2-1.8-1.3 3.2 3.2 6.3c5 3.5 30.3 12.2 35 16.3s22 15.8 29.4 18.4 15.9 4.9 21.4 6.6c5.5 1.7 18.5 14 22.4 16 4 2.1 11.6 4.8 14 6.8z"/>
    <path fill="#152E2B" d="M458.7 31.6c-2.4 1.1-4 1.4-7.3 2.4s-14.7 0-21.1 2.6-11.3 3.2-17.7 4c-6.4.8-26.2 2.2-31.2 3.3S355.5 40.4 349 42c-6.5 1.7-10.2 3.5-10.1 5.1s-5.3 6.8-11.5 9.7c-6.2 2.9-21.4 5.4-30.9 5.9s-46.5.8-53.2 1c-6.7.2-21.6-.2-28-.4-6.3-.3-28.9 2.9-34.3 3.9-5.5 1-18.2 6.4-24.8 6.9s-6.2-.5-16.4.7-14.4-4.4-14.4-4.4c-2.4-2-10-4.8-14-6.8S94.5 49.4 89 47.7s-14.1-4-21.4-6.6c-7.4-2.6-24.7-14.4-29.4-18.4S8.1 10 3.1 6.4c0 0 23.9 10.1 35 14.6s19.2 15.7 30.7 19.2C80.4 43.7 88.5 44.3 94 48s15.5 12.9 18.5 14.8c3 1.9 12 5.3 13.3 6.3 1.3 1 2.2 3.1 5.6 4.3s8.3.3 11.7.2 12.5 0 14.2-.3c11.5-2.3 16.9-7.9 32.6-9.3 15.7-1.4 32.7-1.1 35-.9 2.3.2 36.2-.4 38.2-.4 1.9 0 29.9-.4 32.1-.8 2.3-.4 27-2.1 35.4-9.7 8.3-7.6 6.4-9 13.2-10.1 6.8-1.1 12.3-1.1 13.2-.8 1 .2 20.2 2.1 24.7 1.5s24.9-1.7 27.4-2.5 12.3-.8 19.6-4.3 13.2-2 19.5-2.2c6.2-.2 10.5-2.2 10.5-2.2z"/>
    <path fill="#152E2B" d="M1.4.6C3.8 4.6 18.8 9 24.7 9c5.9 0 18.9 3.8 27.2 5.3s26 4.2 30.2 5.4c4.2 1.2 11.2.3 15.6.6 4.4.2 33.3 9.1 39.8 9.8 6.5.7 15.7 4.5 21 6 5.3 1.5 17.4 4.1 22 5.2 4.5 1.1 13.9 1.5 22 1.8s16.2-1.3 24.6-2.4c8.4-1.2 18.3-2.2 22.4-2.2 4.1 0 10.8 1.3 14 2s17.3.7 22.5-.2 14-4.3 18-6.9 19.6-7 23.7-6.6 10.9-1 14.3-1.4 4.5-1.6 16.1-1c11.6.6 12-1.2 9.8-2.2s-15 .6-17.2.1 8.1-3 13.8-2.9c5.5 0 10.1.8 18.6 2.2.2 0 .4.1.6.1 8.9 1.5 20 4.9 27.8 7.1s13.7 1.8 20.6 2.2c6.9.3 8.6.5 13.8.3s3.7.5 9.2-.6c0 0-6.7 2-14.6 1.5-7.9-.5-15 2.5-30.6-2.3s-22.3-6.8-29.2-8c-6.9-1.3-11.6-2-14.6-2s-10.2.8-11.2 1.1-3.5.9-3.5.9 10.1-.4 13.2-.3c3.1.1 5.9.4 6.6 1.8.7 1.5-9.1 1.8-12.4 1.6-3.3-.3-10.3-.1-12.7.2-2.3.4-11.1 2.7-13.9 3-2.8.3-8.8.7-12.6 1.3-3.7.6-11.1 2.6-15.5 5.3s-13.8 7.6-21.4 7.4c-7.6-.2-19 0-27.3-2.1s-29.8 1.3-29.6 1.3-22.8 3.2-27.4 3.3-22.2-1.3-39.1-7.3-27.6-8.2-30.2-8.6c-2.7-.4-25.6-7.1-28-7.5-2.4-.3-2.8-.6-5.4-.6s-10.5.5-12.7 0c-2.2-.5-9.2-2.1-12-2.5-2.8-.5-34.7-6.8-36.7-6.9-2-.1-9.5-.3-20.1-3.6S1.4.6 1.4.6z"/>
</svg>
