<svg xmlns="http://www.w3.org/2000/svg" viewBox="0 0 550 90">
    <path fill="#18403c" d="M542.9 15.2c-1.9-.6-15.8-3.5-25.3 1s-25.5 7.8-28 8.3c-2.5.5 2.2-5.3-1.4-5.6-3.6-.3-17.5 6.1-21.4 7.8-3.9 1.8-39 7.3-45.1 5.9-6.1-1.4-33.2 4.5-38.6 4-5.4-.5-37.2-9.5-42.3-10.3s-7.5 8.7-18.5 6.9c-11.1-1.8-56.5-9.9-61-13.7-4.5-3.8-37.1-9.6-40.9-10.6-3.8-1-7.4-8.4-19.7-8.9-7.1-.3-11.2.7-10.6 2.3.6 1.2 6.8.2 10.7.4 8.8.4 13.9 6.7 16.4 9.6 2.5 2.9-6.9-.8-7.6 6.9-.4 4.3-22.4-11.8-29.9-12.5-7.5-.7-31.3.8-41 4.4-9.7 3.5-7.4 6-20 6.4-12.7.4-25.4 1.8-29.7 1.2-4.3-.7-11.9-.7-16.4-.3-4.5.4-22.1 1.6-27.9 5.2-5.8 3.6-4.5 6.5-8.7 7-4.3.4-17-.5-20.4.5-3.5 1.1-10.3 1.3-12 2.8 0 0-6 3.4-2.4 3 3.6-.4 5.4-1.6 7.6-2 2.2-.4 6.6-.6 11.8-.5 6 .1 16.5.5 20.2-1.8 1.8-1.1 6.8-2.4 10-2.5 1.8 0 2.6 1.2 6.8.8 4.2-.4 12.4-2.4 15.1-2.6 2.7-.1 12.6.7 13.8 2.6 0 0-.8 3.5 4.1 3.3 5-.2 8.8-.9 21.5 1.5 12.7 2.3 21.1 6 26.1 7.7 5.1 1.6 11.9 3.9 13.9 4.8 2 .8 28.9 17.8 43.1 23 14.2 5.2 37.7 21.4 57.5 18.4 19.8-3 24.1-6.1 27.2-6 3.1.2 13.1 3.1 17.6.4 4.4-2.7 14.1-13.9 18.8-14.8 4.7-1 15-4 15-4s-.4-2.6 6.5-4.5 18.5-3.1 24.4-3.1c5.9 0 25.8.1 27.6-2 1.8-2.1-.9-3.6 3.2-4.5 4.1-.9 39.1-1.5 43-3.7 3.9-2.3 15.8-5.5 18.5-6.3 2.6-.8 11.3-3.5 14.8-4.6 3.5-1.1 13.2-1.8 17.8-4.1 4.6-2.4 11.5-4.4 15.3-5.6 3.8-1.2 27.5-11.3 41.2-9.6 13.8 1.5 1.2-1.5-.7-2zm-329.4 2.1c1.2-2.2 4.7-2.5 5.7-2 .6.3.8 3.3 1.6 4 .7.7 4.8 3.1 5.6 4.7.9 1.6-9.2-1.4-11.6-2.4-2.5-.9-2.6-2-1.3-4.3zm57.3 62.9s-10.9 1.5-15.3 2.1c-4.4.6-11.3 2.3-17.3 0s-17-7.6-20-9.2c-3-1.6-14.7-6.4-15.9-7.7-1.2-1.3 12.5 2.9 18.3 5.2 5.8 2.2 13.5 3.9 17 2.8s4.2-2.4 10.5-1.6c6.2.8 11.4 4.2 13.7 5.5 2.4 1.3 9.9 1 9 2.9zm100.6-41.7c-3.3.6-12.4-1.7-17.6-2.4-5.2-.7-15.4-.6-17.6-.7-2.3-.1-2.4-.8 0-2.8 2.4-2 6.2-3.2 6.8-3.2 4-.6 10.8 3.2 13.4 4 2.5.6 18.2 4.5 15 5.1z"/>
    <path fill="#152E2B" d="M1.5 37c3.6-.4 5.4-1.6 7.6-2 2.2-.4 6.6-.6 11.8-.5 6 .1 16.5.5 20.2-1.8 1.8-1.1 6.8-2.4 10-2.5 1.8 0 2.6 1.2 6.8.8 4.2-.4 12.4-2.4 15.1-2.6 2.7-.1 12.6.7 13.8 2.6 0 0-.8 3.5 4.1 3.3 5-.2 8.8-.9 21.5 1.5 12.7 2.3 21.1 6 26.1 7.7 5.1 1.6 11.9 3.9 13.9 4.8 2 .8 28.9 17.8 43.1 23s37.7 21.4 57.5 18.4c19.8-3 24.1-6.1 27.2-6 3.1.2 13.1 3.1 17.6.4 4.4-2.7 14.1-13.9 18.8-14.8 4.7-1 15-4 15-4s-.4-2.6 6.5-4.5 18.5-3.1 24.4-3.1c5.9 0 25.8.1 27.6-2 1.8-2.1-.9-3.6 3.2-4.5 4.1-.9 39.1-1.5 43-3.7 3.9-2.3 15.8-5.5 18.5-6.3 2.6-.8 11.3-3.5 14.8-4.6 3.5-1.1 13.2-1.8 17.8-4.1s11.5-4.4 15.3-5.6c3.8-1.2 27.5-11.3 41.2-9.6 0 0-14.7-4.7-42.1 7.8-27.4 12.4-42.6 11.1-45.6 11.7-3 .6-14.2 8.3-27.4 9.8s-31.5 3.2-35.3 3.7-4.1 2.6-4.2 3.4c-.1.8-4.8 3.5-8.8 3.3-4-.2-25.7-.4-37.9 1.2s-10.9 5.8-14.4 6.7c-3.5 1-9.2 2.8-13.4 4.3-4.3 1.5-8.7 5.8-12.5 9.6s-14.3 3.7-19.1 3c-4.8-.7-10.1 2.9-13.3 3.5-3.1.6-14.7 3.5-19.8 3.8-5.1.3-13.6-.7-25.8-6.7-12.3-6.1-35-17.5-41-19.6-6-2.1-26.1-14.3-32.8-15.7-6.7-1.4-23.3-8.1-25.3-8.7-2-.5-17.3-5.6-20.3-5.8s-13 1.8-15.4 1.1c-2.4-.6-1.4-3-2.4-3.7-1.1-.7-5.9-3.5-12.1-2.9-6.1.6-10.3 2.3-12.4 2.6s-7.1 1.4-8.7.8c-1.6-.6-3.2-1.5-7-.8s-5.5 2.4-6.7 2.9c-1.2.5-9.7 1.5-14 1.5s-8.7-.4-12.6-.1c-3.9.3-5.5.6-6 1.1S1.5 37 1.5 37z"/>
    <path fill="#152E2B" d="M542.9 15.2c-1.9-.6-15.8-3.5-25.3 1s-25.5 7.8-28 8.3c-2.5.5 2.2-5.3-1.4-5.6-3.6-.3-17.5 6.1-21.4 7.8-3.9 1.8-39 7.3-45.1 5.9-6.1-1.4-33.2 4.5-38.6 4-5.4-.5-37.2-9.5-42.3-10.3s-7.5 8.7-18.5 6.9c-11.1-1.8-56.5-9.9-61-13.7-4.7-3.8-37.3-9.6-41.1-10.5-3.8-1-7.4-8.4-19.7-8.9-7.1-.3-11.2.7-10.6 2.3.6 1.2 6.8.2 10.7.4 8.8.4 13.9 6.7 16.4 9.6 2.5 2.9-6.9-.8-7.6 6.9-.4 4.2-22.4-12-30-12.7-7.5-.7-31.3.8-41 4.4-9.7 3.5-7.4 6-20 6.4-12.6.4-25.2 1.8-29.5 1.2-4.3-.6-11.9-.6-16.4-.2-4.5.4-22.1 1.6-27.9 5.2-5.8 3.6-4.5 6.5-8.7 7-4.3.4-17-.5-20.4.5-3.5 1.1-10.3 1.3-12 2.8 0 0 4.3-1.5 7.1-1.5 2.9.1 4.8-.5 7.2-.9s17.3 1.7 21.3.2 3.7-7.1 7.8-8.5c4.1-1.3 11.3-3.5 17.3-3.5 5.9-.1 11.8-1.6 14.8-1 3 .5 8 1.5 18.2 1.4s28.9-.9 33.9-4.1c5.1-3.2 5.8-4.5 10.8-5.5s18.7-2.7 20.6-2.8c1.9-.1 14.4-1.2 21 1 6.6 2.3 18.8 9.6 19.8 10.1s6 4.2 7.2.6c1.2-3.6.1-4 2.4-4.6 2.3-.6 6.6-.2 5.7-1.9-.9-1.7-6.6-6.1-6.7-6.2-.1-.1-4.2-3.3-7.6-3.7-3.5-.4-6.5-.5-6.9-.5-.3.1-6.3 0-6.8 0s.1-1.2.9-1.3c.9-.1 4.1-1 6.4-.8 2.2.2 7.1.4 8.6.9s6.4 2.6 8.6 4.5c2.2 2 3.1 3.2 6.5 3.8 3.4.6 32.3 7.4 34.2 8.2s5.7 3.4 10.8 5c5.1 1.5 24.9 5.3 24.9 5.3s24.1 4.4 24.2 4.4c.1 0 10 3.1 15.5.4s6.6-6.7 9.6-6.1 14.5 3.4 16.1 3.8c1.6.5 16.2 4.5 17.7 4.6 1.5.1 6.5 2.8 12.1 2 5.6-.8 14.9-2.5 14.9-2.5s14.9-2.3 17.3-1.9c2.4.3 4.1 1.1 8.2.9 4.1-.2 18.8-2.5 18.8-2.5s17.6-1.8 21.9-4.1c4.3-2.3 15.8-7 17.3-7.2 1.5-.3 4-.7 4.2.2.3.8-1 3.7-.8 4.5.1.8 2.1.6 4 .2 1.9-.5 10-2.5 16.2-4.6 6.2-2.2 8.9-3.5 9.5-3.7s6-1.8 8.2-1.9c2.2-.1 9.6-.1 11.2.2l5.3.4zM252.7 89.5"/>
    <path fill="#152E2B" d="M219.2 15.4s.8 1.2 1 2.7c.2 1.5.9 1.9 1.6 2.3.9.5 3.8 2.5 4 3.1s-2.5.5-3.9.2c-1.4-.4-7.5-2.2-7.5-2.2s10 4.2 12 3c1.1-.7-1.8-2.5-2.4-2.9-.5-.3-3.1-1.9-3.3-2.5-.2-.6-.7-3.2-1.5-3.7zm-17 49.9s3.7.4 9.7 2.4c6 1.9 16.9 7.4 24.6 6s9.5-2.7 13.9-1.1c4.4 1.5 8.1 4.2 12.6 5.2s7.2 1.1 7.7 2.4c0 0 .9-1.3-2.6-1.9-3.5-.6-5.8-1.4-10-3.6-4.1-2.2-8.9-3.5-12-3.4s-8.9 1.6-12.4 1.5c-3.5-.1-14.3-2.5-16.3-3.7-2-1.1-9.7-3.3-11-3.5-.5 0-3.5-.6-4.2-.3zm133.5-32.5s-2.4 1-1.4 2c1 1.1 5.5.9 6.4.8.9 0 12.3.4 15.3 1.3s13.6 2.7 15.7 1.2c0 0-3.8.3-7.2-.4s-9.1-1.8-11-1.9c-1.9-.1-8.5-1.1-12.2-.8-3.7.3-6.6 0-6.6-1 .1-.3 1-1.2 1-1.2z"/>
</svg>
